# xmcd
#
# Track frame offsets: 
#        150
#        10210
#        25555
#        39535
#        54725
#        63533
#        79500
#        86340
#        97518
#        106483
#        119198
#        135925
#        144305
#        159958
#        169938
#        184165
#        195373
#        204395
#        220248
#        230513
#
# Disc length: 3250 seconds
#
# Revision: 2
# Processed by: cddbd v1.5.2PL0 Copyright (c) Steve Scherf et al.
# Submitted via: ExactAudioCopy v1.0b3
#
DISCID=000cb014
DTITLE=Boxcar Willie - King Of The Road - 20 Great Tracks
DYEAR=1988
DGENRE=Country
TTITLE0=King Of The Road
TTITLE1=Wabash Cannonball
TTITLE2=You Are My Sunshine
TTITLE3=Boxcar Blues
TTITLE4=Don't Let The Stars Get In Your Eyes
TTITLE5=Your Cheatin' Heart
TTITLE6=I Saw The Light
TTITLE7=Wreck Of The Old '97
TTITLE8=Hank And The Hobo
TTITLE9=Peace In The Valley
TTITLE10=Mule Train
TTITLE11=Hey Good Lookin'
TTITLE12=Kaw-Liga
TTITLE13=Move It On Over
TTITLE14=London Leaves
TTITLE15=Rolling In My Sweet Baby's Arms
TTITLE16=Divorce Me C.O.D.
TTITLE17=Red River Valley
TTITLE18=Heaven
TTITLE19=San Antonio Rose
EXTD=
EXTT0=
EXTT1=
EXTT2=
EXTT3=
EXTT4=
EXTT5=
EXTT6=
EXTT7=
EXTT8=
EXTT9=
EXTT10=
EXTT11=
EXTT12=
EXTT13=
EXTT14=
EXTT15=
EXTT16=
EXTT17=
EXTT18=
EXTT19=
PLAYORDER=
